<mxfile host="65bd71144e">
    <diagram id="1WS0C2TTASSNU9hdsVjz" name="Page-1">
        <mxGraphModel dx="229" dy="262" grid="1" gridSize="10" guides="1" tooltips="1" connect="1" arrows="1" fold="1" page="1" pageScale="1" pageWidth="200" pageHeight="20" background="none" math="0" shadow="0">
            <root>
                <mxCell id="0"/>
                <mxCell id="1" parent="0"/>
                <mxCell id="10" value="0" style="rounded=0;whiteSpace=wrap;html=1;fillColor=#FAD7AC;fontColor=#000000;fontSize=15;strokeColor=#B46504;" vertex="1" parent="1">
                    <mxGeometry x="10" y="30" width="30" height="30" as="geometry"/>
                </mxCell>
                <mxCell id="11" value="1" style="rounded=0;whiteSpace=wrap;html=1;fillColor=#FAD7AC;fontColor=#000000;fontSize=15;strokeColor=#B46504;" vertex="1" parent="1">
                    <mxGeometry x="60" y="30" width="30" height="30" as="geometry"/>
                </mxCell>
                <mxCell id="13" value="2" style="rounded=0;whiteSpace=wrap;html=1;fillColor=#FAD7AC;fontColor=#000000;fontSize=15;strokeColor=#B46504;" vertex="1" parent="1">
                    <mxGeometry x="110" y="30" width="30" height="30" as="geometry"/>
                </mxCell>
                <mxCell id="15" value="3" style="rounded=0;whiteSpace=wrap;html=1;fillColor=#FAD7AC;fontColor=#000000;fontSize=15;strokeColor=#B46504;" vertex="1" parent="1">
                    <mxGeometry x="160" y="30" width="30" height="30" as="geometry"/>
                </mxCell>
                <mxCell id="21" value="" style="endArrow=none;html=1;exitX=1;exitY=0.5;exitDx=0;exitDy=0;fontColor=#000000;strokeColor=#B46504;" edge="1" parent="1" source="10" target="11">
                    <mxGeometry width="50" height="50" relative="1" as="geometry">
                        <mxPoint x="70" y="5" as="sourcePoint"/>
                        <mxPoint x="120" y="-45" as="targetPoint"/>
                    </mxGeometry>
                </mxCell>
                <mxCell id="22" value="" style="endArrow=none;html=1;exitX=1;exitY=0.5;exitDx=0;exitDy=0;fontColor=#000000;strokeColor=#B46504;" edge="1" parent="1">
                    <mxGeometry width="50" height="50" relative="1" as="geometry">
                        <mxPoint x="90" y="45" as="sourcePoint"/>
                        <mxPoint x="110" y="45" as="targetPoint"/>
                    </mxGeometry>
                </mxCell>
                <mxCell id="23" value="" style="endArrow=none;html=1;exitX=1;exitY=0.5;exitDx=0;exitDy=0;fontColor=#000000;strokeColor=#B46504;" edge="1" parent="1">
                    <mxGeometry width="50" height="50" relative="1" as="geometry">
                        <mxPoint x="140" y="45" as="sourcePoint"/>
                        <mxPoint x="160" y="45" as="targetPoint"/>
                    </mxGeometry>
                </mxCell>
                <mxCell id="24" value="" style="endArrow=none;html=1;exitX=0;exitY=0.5;exitDx=0;exitDy=0;entryX=1;entryY=0.5;entryDx=0;entryDy=0;fontColor=#000000;strokeColor=#B46504;" edge="1" parent="1" source="10" target="15">
                    <mxGeometry width="50" height="50" relative="1" as="geometry">
                        <mxPoint y="45" as="sourcePoint"/>
                        <mxPoint x="200" y="45" as="targetPoint"/>
                        <Array as="points">
                            <mxPoint y="45"/>
                            <mxPoint y="75"/>
                            <mxPoint x="200" y="75"/>
                            <mxPoint x="200" y="45"/>
                        </Array>
                    </mxGeometry>
                </mxCell>
            </root>
        </mxGraphModel>
    </diagram>
</mxfile>